<svg width="1920" height="86" viewBox="0 0 1920 86" fill="none" xmlns="http://www.w3.org/2000/svg">
<rect width="1920" height="86" fill="white"/>
<path d="M604.021 37.586C603.974 37.6653 603.925 37.7237 603.874 37.761C603.823 37.7983 603.757 37.817 603.678 37.817C603.594 37.817 603.498 37.7797 603.391 37.705C603.284 37.6257 603.148 37.5393 602.985 37.446C602.826 37.348 602.635 37.2617 602.411 37.187C602.187 37.1077 601.919 37.068 601.606 37.068C601.312 37.068 601.053 37.1077 600.829 37.187C600.61 37.2617 600.425 37.3667 600.276 37.502C600.127 37.6327 600.012 37.789 599.933 37.971C599.858 38.1483 599.821 38.342 599.821 38.552C599.821 38.8227 599.889 39.0467 600.024 39.224C600.164 39.4013 600.346 39.553 600.57 39.679C600.794 39.805 601.048 39.9147 601.333 40.008C601.618 40.1013 601.909 40.1993 602.208 40.302C602.507 40.4 602.798 40.5143 603.083 40.645C603.368 40.7757 603.622 40.9413 603.846 41.142C604.07 41.338 604.25 41.5807 604.385 41.87C604.525 42.1547 604.595 42.5047 604.595 42.92C604.595 43.3633 604.518 43.7787 604.364 44.166C604.215 44.5533 603.995 44.8917 603.706 45.181C603.417 45.4703 603.06 45.699 602.635 45.867C602.215 46.0303 601.737 46.112 601.2 46.112C600.878 46.112 600.565 46.0793 600.262 46.014C599.959 45.9533 599.672 45.867 599.401 45.755C599.13 45.6383 598.876 45.5007 598.638 45.342C598.405 45.1787 598.195 44.9967 598.008 44.796L598.435 44.082C598.477 44.026 598.526 43.9793 598.582 43.942C598.643 43.9047 598.71 43.886 598.785 43.886C598.883 43.886 598.995 43.9373 599.121 44.04C599.252 44.1427 599.41 44.257 599.597 44.383C599.788 44.5043 600.015 44.6163 600.276 44.719C600.542 44.8217 600.864 44.873 601.242 44.873C601.55 44.873 601.825 44.8333 602.068 44.754C602.311 44.67 602.514 44.5533 602.677 44.404C602.845 44.25 602.973 44.0657 603.062 43.851C603.151 43.6363 603.195 43.3983 603.195 43.137C603.195 42.843 603.127 42.6027 602.992 42.416C602.857 42.2293 602.677 42.073 602.453 41.947C602.229 41.821 601.975 41.7137 601.69 41.625C601.405 41.5363 601.114 41.4453 600.815 41.352C600.516 41.254 600.225 41.142 599.94 41.016C599.655 40.89 599.401 40.7267 599.177 40.526C598.953 40.3207 598.773 40.0663 598.638 39.763C598.503 39.455 598.435 39.077 598.435 38.629C598.435 38.2697 598.505 37.922 598.645 37.586C598.785 37.25 598.988 36.9537 599.254 36.697C599.525 36.4357 599.856 36.228 600.248 36.074C600.64 35.9153 601.088 35.836 601.592 35.836C602.157 35.836 602.675 35.927 603.146 36.109C603.622 36.2863 604.035 36.543 604.385 36.879L604.021 37.586ZM613.288 37.194H610.096V46H608.612V37.194H605.406V35.948H613.288V37.194ZM619.091 42.255L617.6 38.356C617.492 38.09 617.385 37.754 617.278 37.348C617.226 37.5487 617.173 37.7353 617.117 37.908C617.065 38.0807 617.014 38.2347 616.963 38.37L615.479 42.255H619.091ZM622.038 46H620.89C620.759 46 620.652 45.9673 620.568 45.902C620.484 45.8367 620.423 45.7527 620.386 45.65L619.497 43.319H615.066L614.177 45.65C614.144 45.7387 614.083 45.8203 613.995 45.895C613.906 45.965 613.799 46 613.673 46H612.525L616.529 35.948H618.034L622.038 46ZM626.142 40.792C626.524 40.792 626.86 40.7453 627.15 40.652C627.444 40.5587 627.689 40.428 627.885 40.26C628.081 40.0873 628.228 39.8843 628.326 39.651C628.424 39.413 628.473 39.1517 628.473 38.867C628.473 38.2883 628.281 37.852 627.899 37.558C627.521 37.264 626.951 37.117 626.191 37.117H624.784V40.792H626.142ZM630.832 46H629.502C629.236 46 629.042 45.895 628.921 45.685L626.436 42.199C626.356 42.0823 626.27 42.0007 626.177 41.954C626.083 41.9027 625.943 41.877 625.757 41.877H624.784V46H623.293V35.948H626.191C626.839 35.948 627.397 36.0157 627.864 36.151C628.335 36.2817 628.722 36.4707 629.026 36.718C629.334 36.9607 629.56 37.2547 629.705 37.6C629.854 37.9453 629.929 38.3327 629.929 38.762C629.929 39.112 629.875 39.441 629.768 39.749C629.66 40.057 629.502 40.3347 629.292 40.582C629.086 40.8247 628.834 41.0347 628.536 41.212C628.237 41.3893 627.899 41.5247 627.521 41.618C627.707 41.73 627.868 41.8863 628.004 42.087L630.832 46ZM635.976 44.803C636.378 44.803 636.737 44.7353 637.054 44.6C637.372 44.4647 637.64 44.2757 637.859 44.033C638.079 43.7857 638.247 43.494 638.363 43.158C638.48 42.8173 638.538 42.4417 638.538 42.031V35.948H640.022V42.031C640.022 42.619 639.929 43.1627 639.742 43.662C639.556 44.1613 639.287 44.593 638.937 44.957C638.587 45.321 638.163 45.6057 637.663 45.811C637.164 46.0163 636.602 46.119 635.976 46.119C635.351 46.119 634.789 46.0163 634.289 45.811C633.79 45.6057 633.365 45.321 633.015 44.957C632.665 44.593 632.397 44.1613 632.21 43.662C632.024 43.1627 631.93 42.619 631.93 42.031V35.948H633.421V42.024C633.421 42.4347 633.477 42.8103 633.589 43.151C633.706 43.4917 633.874 43.7857 634.093 44.033C634.313 44.2757 634.581 44.4647 634.898 44.6C635.216 44.7353 635.575 44.803 635.976 44.803ZM647.487 42.255L645.996 38.356C645.889 38.09 645.782 37.754 645.674 37.348C645.623 37.5487 645.569 37.7353 645.513 37.908C645.462 38.0807 645.411 38.2347 645.359 38.37L643.875 42.255H647.487ZM650.434 46H649.286C649.156 46 649.048 45.9673 648.964 45.902C648.88 45.8367 648.82 45.7527 648.782 45.65L647.893 43.319H643.462L642.573 45.65C642.541 45.7387 642.48 45.8203 642.391 45.895C642.303 45.965 642.195 46 642.069 46H640.921L644.925 35.948H646.43L650.434 46ZM654.538 40.792C654.921 40.792 655.257 40.7453 655.546 40.652C655.84 40.5587 656.085 40.428 656.281 40.26C656.477 40.0873 656.624 39.8843 656.722 39.651C656.82 39.413 656.869 39.1517 656.869 38.867C656.869 38.2883 656.678 37.852 656.295 37.558C655.917 37.264 655.348 37.117 654.587 37.117H653.18V40.792H654.538ZM659.228 46H657.898C657.632 46 657.439 45.895 657.317 45.685L654.832 42.199C654.753 42.0823 654.667 42.0007 654.573 41.954C654.48 41.9027 654.34 41.877 654.153 41.877H653.18V46H651.689V35.948H654.587C655.236 35.948 655.794 36.0157 656.26 36.151C656.732 36.2817 657.119 36.4707 657.422 36.718C657.73 36.9607 657.957 37.2547 658.101 37.6C658.251 37.9453 658.325 38.3327 658.325 38.762C658.325 39.112 658.272 39.441 658.164 39.749C658.057 40.057 657.898 40.3347 657.688 40.582C657.483 40.8247 657.231 41.0347 656.932 41.212C656.634 41.3893 656.295 41.5247 655.917 41.618C656.104 41.73 656.265 41.8863 656.4 42.087L659.228 46ZM665.722 37.586C665.676 37.6653 665.627 37.7237 665.575 37.761C665.524 37.7983 665.459 37.817 665.379 37.817C665.295 37.817 665.2 37.7797 665.092 37.705C664.985 37.6257 664.85 37.5393 664.686 37.446C664.528 37.348 664.336 37.2617 664.112 37.187C663.888 37.1077 663.62 37.068 663.307 37.068C663.013 37.068 662.754 37.1077 662.53 37.187C662.311 37.2617 662.127 37.3667 661.977 37.502C661.828 37.6327 661.714 37.789 661.634 37.971C661.56 38.1483 661.522 38.342 661.522 38.552C661.522 38.8227 661.59 39.0467 661.725 39.224C661.865 39.4013 662.047 39.553 662.271 39.679C662.495 39.805 662.75 39.9147 663.034 40.008C663.319 40.1013 663.611 40.1993 663.909 40.302C664.208 40.4 664.5 40.5143 664.784 40.645C665.069 40.7757 665.323 40.9413 665.547 41.142C665.771 41.338 665.951 41.5807 666.086 41.87C666.226 42.1547 666.296 42.5047 666.296 42.92C666.296 43.3633 666.219 43.7787 666.065 44.166C665.916 44.5533 665.697 44.8917 665.407 45.181C665.118 45.4703 664.761 45.699 664.336 45.867C663.916 46.0303 663.438 46.112 662.901 46.112C662.579 46.112 662.267 46.0793 661.963 46.014C661.66 45.9533 661.373 45.867 661.102 45.755C660.832 45.6383 660.577 45.5007 660.339 45.342C660.106 45.1787 659.896 44.9967 659.709 44.796L660.136 44.082C660.178 44.026 660.227 43.9793 660.283 43.942C660.344 43.9047 660.412 43.886 660.486 43.886C660.584 43.886 660.696 43.9373 660.822 44.04C660.953 44.1427 661.112 44.257 661.298 44.383C661.49 44.5043 661.716 44.6163 661.977 44.719C662.243 44.8217 662.565 44.873 662.943 44.873C663.251 44.873 663.527 44.8333 663.769 44.754C664.012 44.67 664.215 44.5533 664.378 44.404C664.546 44.25 664.675 44.0657 664.763 43.851C664.852 43.6363 664.896 43.3983 664.896 43.137C664.896 42.843 664.829 42.6027 664.693 42.416C664.558 42.2293 664.378 42.073 664.154 41.947C663.93 41.821 663.676 41.7137 663.391 41.625C663.107 41.5363 662.815 41.4453 662.516 41.352C662.218 41.254 661.926 41.142 661.641 41.016C661.357 40.89 661.102 40.7267 660.878 40.526C660.654 40.3207 660.475 40.0663 660.339 39.763C660.204 39.455 660.136 39.077 660.136 38.629C660.136 38.2697 660.206 37.922 660.346 37.586C660.486 37.25 660.689 36.9537 660.955 36.697C661.226 36.4357 661.557 36.228 661.949 36.074C662.341 35.9153 662.789 35.836 663.293 35.836C663.858 35.836 664.376 35.927 664.847 36.109C665.323 36.2863 665.736 36.543 666.086 36.879L665.722 37.586ZM677.431 44.747V46H671.677V35.948H673.168V44.747H677.431ZM684.437 37.194H681.245V46H679.761V37.194H676.555V35.948H684.437V37.194ZM694.654 40.974C694.654 41.7253 694.532 42.409 694.29 43.025C694.052 43.641 693.713 44.1707 693.275 44.614C692.836 45.0527 692.311 45.3933 691.7 45.636C691.088 45.8787 690.409 46 689.663 46H685.883V35.948H689.663C690.409 35.948 691.088 36.0693 691.7 36.312C692.311 36.5547 692.836 36.8977 693.275 37.341C693.713 37.7797 694.052 38.3093 694.29 38.93C694.532 39.546 694.654 40.2273 694.654 40.974ZM693.128 40.974C693.128 40.3767 693.046 39.8423 692.883 39.371C692.719 38.895 692.486 38.4937 692.183 38.167C691.884 37.8357 691.52 37.5837 691.091 37.411C690.666 37.2383 690.19 37.152 689.663 37.152H687.381V44.796H689.663C690.19 44.796 690.666 44.7097 691.091 44.537C691.52 44.3643 691.884 44.1147 692.183 43.788C692.486 43.4567 692.719 43.0553 692.883 42.584C693.046 42.1127 693.128 41.576 693.128 40.974ZM701.601 42.255L700.11 38.356C700.002 38.09 699.895 37.754 699.788 37.348C699.736 37.5487 699.683 37.7353 699.627 37.908C699.575 38.0807 699.524 38.2347 699.473 38.37L697.989 42.255H701.601ZM704.548 46H703.4C703.269 46 703.162 45.9673 703.078 45.902C702.994 45.8367 702.933 45.7527 702.896 45.65L702.007 43.319H697.576L696.687 45.65C696.654 45.7387 696.593 45.8203 696.505 45.895C696.416 45.965 696.309 46 696.183 46H695.035L699.039 35.948H700.544L704.548 46ZM708.879 35.241H709.943V48.436H708.879V35.241ZM722.982 43.844C723.066 43.844 723.138 43.8767 723.199 43.942L723.787 44.586C723.376 45.0713 722.874 45.447 722.282 45.713C721.694 45.979 720.984 46.112 720.154 46.112C719.426 46.112 718.765 45.986 718.173 45.734C717.585 45.482 717.081 45.1297 716.661 44.677C716.245 44.2243 715.923 43.683 715.695 43.053C715.466 42.423 715.352 41.73 715.352 40.974C715.352 40.218 715.471 39.525 715.709 38.895C715.951 38.265 716.29 37.7237 716.724 37.271C717.158 36.8183 717.676 36.466 718.278 36.214C718.884 35.962 719.554 35.836 720.287 35.836C721.001 35.836 721.635 35.9527 722.191 36.186C722.746 36.4193 723.229 36.7297 723.64 37.117L723.15 37.81C723.117 37.8613 723.075 37.9033 723.024 37.936C722.977 37.9687 722.914 37.985 722.835 37.985C722.746 37.985 722.641 37.9407 722.52 37.852C722.403 37.7633 722.247 37.6653 722.051 37.558C721.859 37.446 721.621 37.3457 721.337 37.257C721.052 37.1683 720.697 37.124 720.273 37.124C719.773 37.124 719.316 37.2127 718.901 37.39C718.485 37.5627 718.126 37.8147 717.823 38.146C717.524 38.4727 717.291 38.8763 717.123 39.357C716.959 39.833 716.878 40.372 716.878 40.974C716.878 41.5853 716.964 42.129 717.137 42.605C717.309 43.081 717.547 43.4847 717.851 43.816C718.154 44.1473 718.511 44.3993 718.922 44.572C719.332 44.7447 719.776 44.831 720.252 44.831C720.541 44.831 720.8 44.8147 721.029 44.782C721.262 44.7447 721.474 44.691 721.666 44.621C721.862 44.551 722.046 44.4623 722.219 44.355C722.391 44.243 722.562 44.11 722.73 43.956C722.767 43.9233 722.807 43.8977 722.849 43.879C722.891 43.8557 722.935 43.844 722.982 43.844ZM733.517 35.948V46H732.761C732.644 46 732.546 45.979 732.467 45.937C732.392 45.895 732.315 45.8273 732.236 45.734L726.559 38.391C726.568 38.517 726.575 38.6407 726.58 38.762C726.589 38.8833 726.594 38.9977 726.594 39.105V46H725.285V35.948H726.055C726.186 35.948 726.284 35.9643 726.349 35.997C726.414 36.025 726.487 36.0927 726.566 36.2L732.257 43.55C732.243 43.4147 732.231 43.284 732.222 43.158C732.217 43.0273 732.215 42.906 732.215 42.794V35.948H733.517ZM739.049 41.121C739.427 41.121 739.758 41.072 740.043 40.974C740.332 40.876 740.572 40.7383 740.764 40.561C740.96 40.379 741.107 40.1643 741.205 39.917C741.303 39.665 741.352 39.3873 741.352 39.084C741.352 38.4727 741.16 37.992 740.778 37.642C740.4 37.292 739.823 37.117 739.049 37.117H737.495V41.121H739.049ZM739.049 35.948C739.693 35.948 740.253 36.0227 740.729 36.172C741.205 36.3213 741.599 36.5337 741.912 36.809C742.224 37.0797 742.455 37.4087 742.605 37.796C742.759 38.1833 742.836 38.6127 742.836 39.084C742.836 39.5553 742.754 39.9893 742.591 40.386C742.427 40.778 742.187 41.1163 741.87 41.401C741.552 41.6857 741.156 41.9073 740.68 42.066C740.208 42.22 739.665 42.297 739.049 42.297H737.495V46H736.004V35.948H739.049ZM746.908 42.5C746.908 43.06 746.838 43.564 746.698 44.012C746.558 44.46 746.353 44.8403 746.082 45.153C745.816 45.461 745.483 45.699 745.081 45.867C744.685 46.0303 744.227 46.112 743.709 46.112C743.243 46.112 742.762 46.0467 742.267 45.916L742.351 45.034C742.361 44.95 742.391 44.8823 742.442 44.831C742.498 44.775 742.58 44.747 742.687 44.747C742.767 44.747 742.874 44.768 743.009 44.81C743.149 44.8473 743.331 44.866 743.555 44.866C743.854 44.866 744.118 44.8217 744.346 44.733C744.58 44.6443 744.776 44.5067 744.934 44.32C745.093 44.1287 745.212 43.886 745.291 43.592C745.375 43.298 745.417 42.9457 745.417 42.535V35.948H746.908V42.5ZM748.901 45.181C748.901 45.055 748.924 44.936 748.971 44.824C749.017 44.712 749.08 44.614 749.16 44.53C749.244 44.446 749.342 44.3807 749.454 44.334C749.566 44.2827 749.687 44.257 749.818 44.257C749.944 44.257 750.063 44.2827 750.175 44.334C750.287 44.3807 750.385 44.446 750.469 44.53C750.553 44.614 750.618 44.712 750.665 44.824C750.716 44.936 750.742 45.055 750.742 45.181C750.742 45.3117 750.716 45.433 750.665 45.545C750.618 45.657 750.553 45.755 750.469 45.839C750.385 45.923 750.287 45.9883 750.175 46.035C750.063 46.0817 749.944 46.105 749.818 46.105C749.687 46.105 749.566 46.0817 749.454 46.035C749.342 45.9883 749.244 45.923 749.16 45.839C749.08 45.755 749.017 45.657 748.971 45.545C748.924 45.433 748.901 45.3117 748.901 45.181ZM748.901 40.001C748.901 39.875 748.924 39.756 748.971 39.644C749.017 39.532 749.08 39.434 749.16 39.35C749.244 39.266 749.342 39.2007 749.454 39.154C749.566 39.1027 749.687 39.077 749.818 39.077C749.944 39.077 750.063 39.1027 750.175 39.154C750.287 39.2007 750.385 39.266 750.469 39.35C750.553 39.434 750.618 39.532 750.665 39.644C750.716 39.756 750.742 39.875 750.742 40.001C750.742 40.1317 750.716 40.253 750.665 40.365C750.618 40.477 750.553 40.575 750.469 40.659C750.385 40.743 750.287 40.8083 750.175 40.855C750.063 40.9017 749.944 40.925 749.818 40.925C749.687 40.925 749.566 40.9017 749.454 40.855C749.342 40.8083 749.244 40.743 749.16 40.659C749.08 40.575 749.017 40.477 748.971 40.365C748.924 40.253 748.901 40.1317 748.901 40.001ZM762.71 35.948V36.557C762.71 36.7343 762.689 36.879 762.647 36.991C762.61 37.0983 762.572 37.1917 762.535 37.271L758.461 45.517C758.396 45.6523 758.305 45.7667 758.188 45.86C758.071 45.9533 757.915 46 757.719 46H756.739L760.876 37.873C760.946 37.7423 761.016 37.6233 761.086 37.516C761.156 37.404 761.233 37.3013 761.317 37.208H756.179C756.09 37.208 756.013 37.1753 755.948 37.11C755.883 37.0447 755.85 36.9677 755.85 36.879V35.948H762.71ZM770.831 35.948V36.557C770.831 36.7343 770.81 36.879 770.768 36.991C770.731 37.0983 770.693 37.1917 770.656 37.271L766.582 45.517C766.517 45.6523 766.426 45.7667 766.309 45.86C766.192 45.9533 766.036 46 765.84 46H764.86L768.997 37.873C769.067 37.7423 769.137 37.6233 769.207 37.516C769.277 37.404 769.354 37.3013 769.438 37.208H764.3C764.211 37.208 764.134 37.1753 764.069 37.11C764.004 37.0447 763.971 36.9677 763.971 36.879V35.948H770.831ZM772.099 45.181C772.099 45.055 772.123 44.936 772.169 44.824C772.216 44.712 772.279 44.614 772.358 44.53C772.442 44.446 772.54 44.3807 772.652 44.334C772.764 44.2827 772.886 44.257 773.016 44.257C773.142 44.257 773.261 44.2827 773.373 44.334C773.485 44.3807 773.583 44.446 773.667 44.53C773.751 44.614 773.817 44.712 773.863 44.824C773.915 44.936 773.94 45.055 773.94 45.181C773.94 45.3117 773.915 45.433 773.863 45.545C773.817 45.657 773.751 45.755 773.667 45.839C773.583 45.923 773.485 45.9883 773.373 46.035C773.261 46.0817 773.142 46.105 773.016 46.105C772.886 46.105 772.764 46.0817 772.652 46.035C772.54 45.9883 772.442 45.923 772.358 45.839C772.279 45.755 772.216 45.657 772.169 45.545C772.123 45.433 772.099 45.3117 772.099 45.181ZM782.261 35.948V36.557C782.261 36.7343 782.24 36.879 782.198 36.991C782.161 37.0983 782.123 37.1917 782.086 37.271L778.012 45.517C777.947 45.6523 777.856 45.7667 777.739 45.86C777.622 45.9533 777.466 46 777.27 46H776.29L780.427 37.873C780.497 37.7423 780.567 37.6233 780.637 37.516C780.707 37.404 780.784 37.3013 780.868 37.208H775.73C775.641 37.208 775.564 37.1753 775.499 37.11C775.434 37.0447 775.401 36.9677 775.401 36.879V35.948H782.261ZM790.382 35.948V36.557C790.382 36.7343 790.361 36.879 790.319 36.991C790.282 37.0983 790.244 37.1917 790.207 37.271L786.133 45.517C786.068 45.6523 785.977 45.7667 785.86 45.86C785.743 45.9533 785.587 46 785.391 46H784.411L788.548 37.873C788.618 37.7423 788.688 37.6233 788.758 37.516C788.828 37.404 788.905 37.3013 788.989 37.208H783.851C783.762 37.208 783.685 37.1753 783.62 37.11C783.555 37.0447 783.522 36.9677 783.522 36.879V35.948H790.382ZM798.503 35.948V36.557C798.503 36.7343 798.482 36.879 798.44 36.991C798.403 37.0983 798.365 37.1917 798.328 37.271L794.254 45.517C794.189 45.6523 794.098 45.7667 793.981 45.86C793.864 45.9533 793.708 46 793.512 46H792.532L796.669 37.873C796.739 37.7423 796.809 37.6233 796.879 37.516C796.949 37.404 797.026 37.3013 797.11 37.208H791.972C791.883 37.208 791.806 37.1753 791.741 37.11C791.676 37.0447 791.643 36.9677 791.643 36.879V35.948H798.503ZM799.771 45.181C799.771 45.055 799.794 44.936 799.841 44.824C799.888 44.712 799.951 44.614 800.03 44.53C800.114 44.446 800.212 44.3807 800.324 44.334C800.436 44.2827 800.557 44.257 800.688 44.257C800.814 44.257 800.933 44.2827 801.045 44.334C801.157 44.3807 801.255 44.446 801.339 44.53C801.423 44.614 801.488 44.712 801.535 44.824C801.586 44.936 801.612 45.055 801.612 45.181C801.612 45.3117 801.586 45.433 801.535 45.545C801.488 45.657 801.423 45.755 801.339 45.839C801.255 45.923 801.157 45.9883 801.045 46.035C800.933 46.0817 800.814 46.105 800.688 46.105C800.557 46.105 800.436 46.0817 800.324 46.035C800.212 45.9883 800.114 45.923 800.03 45.839C799.951 45.755 799.888 45.657 799.841 45.545C799.794 45.433 799.771 45.3117 799.771 45.181ZM809.933 35.948V36.557C809.933 36.7343 809.912 36.879 809.87 36.991C809.832 37.0983 809.795 37.1917 809.758 37.271L805.684 45.517C805.618 45.6523 805.527 45.7667 805.411 45.86C805.294 45.9533 805.138 46 804.942 46H803.962L808.099 37.873C808.169 37.7423 808.239 37.6233 808.309 37.516C808.379 37.404 808.456 37.3013 808.54 37.208H803.402C803.313 37.208 803.236 37.1753 803.171 37.11C803.105 37.0447 803.073 36.9677 803.073 36.879V35.948H809.933ZM818.054 35.948V36.557C818.054 36.7343 818.033 36.879 817.991 36.991C817.953 37.0983 817.916 37.1917 817.879 37.271L813.805 45.517C813.739 45.6523 813.648 45.7667 813.532 45.86C813.415 45.9533 813.259 46 813.063 46H812.083L816.22 37.873C816.29 37.7423 816.36 37.6233 816.43 37.516C816.5 37.404 816.577 37.3013 816.661 37.208H811.523C811.434 37.208 811.357 37.1753 811.292 37.11C811.226 37.0447 811.194 36.9677 811.194 36.879V35.948H818.054ZM826.175 35.948V36.557C826.175 36.7343 826.154 36.879 826.112 36.991C826.075 37.0983 826.037 37.1917 826 37.271L821.926 45.517C821.861 45.6523 821.77 45.7667 821.653 45.86C821.536 45.9533 821.38 46 821.184 46H820.204L824.341 37.873C824.411 37.7423 824.481 37.6233 824.551 37.516C824.621 37.404 824.698 37.3013 824.782 37.208H819.644C819.555 37.208 819.478 37.1753 819.413 37.11C819.348 37.0447 819.315 36.9677 819.315 36.879V35.948H826.175ZM828.479 46.112C828.414 46.2893 828.311 46.42 828.171 46.504C828.031 46.5927 827.886 46.637 827.737 46.637H827.163L831.335 36.165C831.4 36.0063 831.494 35.885 831.615 35.801C831.741 35.7123 831.886 35.668 832.049 35.668H832.63L828.479 46.112ZM840.793 40.974C840.793 41.8513 840.697 42.612 840.506 43.256C840.319 43.9 840.06 44.4343 839.729 44.859C839.402 45.279 839.015 45.5917 838.567 45.797C838.124 46.0023 837.645 46.105 837.132 46.105C836.619 46.105 836.138 46.0023 835.69 45.797C835.247 45.5917 834.862 45.279 834.535 44.859C834.208 44.4343 833.952 43.9 833.765 43.256C833.578 42.612 833.485 41.8513 833.485 40.974C833.485 40.0967 833.578 39.336 833.765 38.692C833.952 38.0433 834.208 37.509 834.535 37.089C834.862 36.6643 835.247 36.3493 835.69 36.144C836.138 35.9387 836.619 35.836 837.132 35.836C837.645 35.836 838.124 35.9387 838.567 36.144C839.015 36.3493 839.402 36.6643 839.729 37.089C840.06 37.509 840.319 38.0433 840.506 38.692C840.697 39.336 840.793 40.0967 840.793 40.974ZM839.379 40.974C839.379 40.218 839.316 39.5857 839.19 39.077C839.069 38.5683 838.903 38.16 838.693 37.852C838.488 37.5393 838.25 37.3177 837.979 37.187C837.708 37.0563 837.426 36.991 837.132 36.991C836.838 36.991 836.556 37.0563 836.285 37.187C836.014 37.3177 835.774 37.5393 835.564 37.852C835.359 38.16 835.195 38.5683 835.074 39.077C834.953 39.5857 834.892 40.218 834.892 40.974C834.892 41.73 834.953 42.3623 835.074 42.871C835.195 43.3797 835.359 43.788 835.564 44.096C835.774 44.404 836.014 44.6233 836.285 44.754C836.556 44.8847 836.838 44.95 837.132 44.95C837.426 44.95 837.708 44.8847 837.979 44.754C838.25 44.6233 838.488 44.404 838.693 44.096C838.903 43.788 839.069 43.3797 839.19 42.871C839.316 42.3623 839.379 41.73 839.379 40.974ZM848.914 40.974C848.914 41.8513 848.819 42.612 848.627 43.256C848.441 43.9 848.182 44.4343 847.85 44.859C847.524 45.279 847.136 45.5917 846.688 45.797C846.245 46.0023 845.767 46.105 845.253 46.105C844.74 46.105 844.259 46.0023 843.811 45.797C843.368 45.5917 842.983 45.279 842.656 44.859C842.33 44.4343 842.073 43.9 841.886 43.256C841.7 42.612 841.606 41.8513 841.606 40.974C841.606 40.0967 841.7 39.336 841.886 38.692C842.073 38.0433 842.33 37.509 842.656 37.089C842.983 36.6643 843.368 36.3493 843.811 36.144C844.259 35.9387 844.74 35.836 845.253 35.836C845.767 35.836 846.245 35.9387 846.688 36.144C847.136 36.3493 847.524 36.6643 847.85 37.089C848.182 37.509 848.441 38.0433 848.627 38.692C848.819 39.336 848.914 40.0967 848.914 40.974ZM847.5 40.974C847.5 40.218 847.437 39.5857 847.311 39.077C847.19 38.5683 847.024 38.16 846.814 37.852C846.609 37.5393 846.371 37.3177 846.1 37.187C845.83 37.0563 845.547 36.991 845.253 36.991C844.959 36.991 844.677 37.0563 844.406 37.187C844.136 37.3177 843.895 37.5393 843.685 37.852C843.48 38.16 843.317 38.5683 843.195 39.077C843.074 39.5857 843.013 40.218 843.013 40.974C843.013 41.73 843.074 42.3623 843.195 42.871C843.317 43.3797 843.48 43.788 843.685 44.096C843.895 44.404 844.136 44.6233 844.406 44.754C844.677 44.8847 844.959 44.95 845.253 44.95C845.547 44.95 845.83 44.8847 846.1 44.754C846.371 44.6233 846.609 44.404 846.814 44.096C847.024 43.788 847.19 43.3797 847.311 42.871C847.437 42.3623 847.5 41.73 847.5 40.974ZM857.035 40.974C857.035 41.8513 856.94 42.612 856.748 43.256C856.562 43.9 856.303 44.4343 855.971 44.859C855.645 45.279 855.257 45.5917 854.809 45.797C854.366 46.0023 853.888 46.105 853.374 46.105C852.861 46.105 852.38 46.0023 851.932 45.797C851.489 45.5917 851.104 45.279 850.777 44.859C850.451 44.4343 850.194 43.9 850.007 43.256C849.821 42.612 849.727 41.8513 849.727 40.974C849.727 40.0967 849.821 39.336 850.007 38.692C850.194 38.0433 850.451 37.509 850.777 37.089C851.104 36.6643 851.489 36.3493 851.932 36.144C852.38 35.9387 852.861 35.836 853.374 35.836C853.888 35.836 854.366 35.9387 854.809 36.144C855.257 36.3493 855.645 36.6643 855.971 37.089C856.303 37.509 856.562 38.0433 856.748 38.692C856.94 39.336 857.035 40.0967 857.035 40.974ZM855.621 40.974C855.621 40.218 855.558 39.5857 855.432 39.077C855.311 38.5683 855.145 38.16 854.935 37.852C854.73 37.5393 854.492 37.3177 854.221 37.187C853.951 37.0563 853.668 36.991 853.374 36.991C853.08 36.991 852.798 37.0563 852.527 37.187C852.257 37.3177 852.016 37.5393 851.806 37.852C851.601 38.16 851.438 38.5683 851.316 39.077C851.195 39.5857 851.134 40.218 851.134 40.974C851.134 41.73 851.195 42.3623 851.316 42.871C851.438 43.3797 851.601 43.788 851.806 44.096C852.016 44.404 852.257 44.6233 852.527 44.754C852.798 44.8847 853.08 44.95 853.374 44.95C853.668 44.95 853.951 44.8847 854.221 44.754C854.492 44.6233 854.73 44.404 854.935 44.096C855.145 43.788 855.311 43.3797 855.432 42.871C855.558 42.3623 855.621 41.73 855.621 40.974ZM865.03 35.948V36.557C865.03 36.7343 865.009 36.879 864.967 36.991C864.93 37.0983 864.893 37.1917 864.855 37.271L860.781 45.517C860.716 45.6523 860.625 45.7667 860.508 45.86C860.392 45.9533 860.235 46 860.039 46H859.059L863.196 37.873C863.266 37.7423 863.336 37.6233 863.406 37.516C863.476 37.404 863.553 37.3013 863.637 37.208H858.499C858.411 37.208 858.334 37.1753 858.268 37.11C858.203 37.0447 858.17 36.9677 858.17 36.879V35.948H865.03ZM866.417 41.212H869.917V42.374H866.417V41.212ZM878.486 40.974C878.486 41.8513 878.391 42.612 878.199 43.256C878.013 43.9 877.754 44.4343 877.422 44.859C877.096 45.279 876.708 45.5917 876.26 45.797C875.817 46.0023 875.339 46.105 874.825 46.105C874.312 46.105 873.831 46.0023 873.383 45.797C872.94 45.5917 872.555 45.279 872.228 44.859C871.902 44.4343 871.645 43.9 871.458 43.256C871.272 42.612 871.178 41.8513 871.178 40.974C871.178 40.0967 871.272 39.336 871.458 38.692C871.645 38.0433 871.902 37.509 872.228 37.089C872.555 36.6643 872.94 36.3493 873.383 36.144C873.831 35.9387 874.312 35.836 874.825 35.836C875.339 35.836 875.817 35.9387 876.26 36.144C876.708 36.3493 877.096 36.6643 877.422 37.089C877.754 37.509 878.013 38.0433 878.199 38.692C878.391 39.336 878.486 40.0967 878.486 40.974ZM877.072 40.974C877.072 40.218 877.009 39.5857 876.883 39.077C876.762 38.5683 876.596 38.16 876.386 37.852C876.181 37.5393 875.943 37.3177 875.672 37.187C875.402 37.0563 875.119 36.991 874.825 36.991C874.531 36.991 874.249 37.0563 873.978 37.187C873.708 37.3177 873.467 37.5393 873.257 37.852C873.052 38.16 872.889 38.5683 872.767 39.077C872.646 39.5857 872.585 40.218 872.585 40.974C872.585 41.73 872.646 42.3623 872.767 42.871C872.889 43.3797 873.052 43.788 873.257 44.096C873.467 44.404 873.708 44.6233 873.978 44.754C874.249 44.8847 874.531 44.95 874.825 44.95C875.119 44.95 875.402 44.8847 875.672 44.754C875.943 44.6233 876.181 44.404 876.386 44.096C876.596 43.788 876.762 43.3797 876.883 42.871C877.009 42.3623 877.072 41.73 877.072 40.974ZM886.482 35.948V36.557C886.482 36.7343 886.461 36.879 886.419 36.991C886.381 37.0983 886.344 37.1917 886.307 37.271L882.233 45.517C882.167 45.6523 882.076 45.7667 881.96 45.86C881.843 45.9533 881.687 46 881.491 46H880.511L884.648 37.873C884.718 37.7423 884.788 37.6233 884.858 37.516C884.928 37.404 885.005 37.3013 885.089 37.208H879.951C879.862 37.208 879.785 37.1753 879.72 37.11C879.654 37.0447 879.622 36.9677 879.622 36.879V35.948H886.482ZM891.795 35.241H892.859V48.436H891.795V35.241ZM904.54 44.705C904.689 44.705 904.806 44.7493 904.89 44.838C904.974 44.922 905.016 45.034 905.016 45.174V46H898.268V45.531C898.268 45.4377 898.286 45.3397 898.324 45.237C898.361 45.1297 898.424 45.034 898.513 44.95L901.691 41.765C901.957 41.499 902.197 41.2423 902.412 40.995C902.626 40.7477 902.808 40.5027 902.958 40.26C903.107 40.0127 903.221 39.7607 903.301 39.504C903.385 39.2473 903.427 38.9767 903.427 38.692C903.427 38.412 903.382 38.167 903.294 37.957C903.205 37.7423 903.084 37.565 902.93 37.425C902.776 37.285 902.594 37.18 902.384 37.11C902.174 37.04 901.947 37.005 901.705 37.005C901.462 37.005 901.238 37.04 901.033 37.11C900.832 37.18 900.652 37.278 900.494 37.404C900.335 37.53 900.202 37.6793 900.095 37.852C899.987 38.0247 899.91 38.2113 899.864 38.412C899.798 38.5893 899.714 38.7083 899.612 38.769C899.514 38.8297 899.369 38.8437 899.178 38.811L898.464 38.685C898.529 38.2183 898.657 37.8077 898.849 37.453C899.04 37.0983 899.28 36.802 899.57 36.564C899.859 36.3213 900.19 36.1393 900.564 36.018C900.942 35.8967 901.348 35.836 901.782 35.836C902.22 35.836 902.624 35.9013 902.993 36.032C903.366 36.158 903.688 36.3423 903.959 36.585C904.229 36.8277 904.442 37.124 904.596 37.474C904.75 37.8193 904.827 38.2113 904.827 38.65C904.827 39.0233 904.771 39.371 904.659 39.693C904.551 40.0103 904.402 40.3137 904.211 40.603C904.024 40.8923 903.805 41.1747 903.553 41.45C903.305 41.7207 903.042 41.996 902.762 42.276L900.214 44.88C900.41 44.8287 900.606 44.7867 900.802 44.754C901.002 44.7213 901.191 44.705 901.369 44.705H904.54ZM913.473 40.974C913.473 41.8513 913.377 42.612 913.186 43.256C912.999 43.9 912.74 44.4343 912.409 44.859C912.082 45.279 911.695 45.5917 911.247 45.797C910.803 46.0023 910.325 46.105 909.812 46.105C909.298 46.105 908.818 46.0023 908.37 45.797C907.926 45.5917 907.541 45.279 907.215 44.859C906.888 44.4343 906.631 43.9 906.445 43.256C906.258 42.612 906.165 41.8513 906.165 40.974C906.165 40.0967 906.258 39.336 906.445 38.692C906.631 38.0433 906.888 37.509 907.215 37.089C907.541 36.6643 907.926 36.3493 908.37 36.144C908.818 35.9387 909.298 35.836 909.812 35.836C910.325 35.836 910.803 35.9387 911.247 36.144C911.695 36.3493 912.082 36.6643 912.409 37.089C912.74 37.509 912.999 38.0433 913.186 38.692C913.377 39.336 913.473 40.0967 913.473 40.974ZM912.059 40.974C912.059 40.218 911.996 39.5857 911.87 39.077C911.748 38.5683 911.583 38.16 911.373 37.852C911.167 37.5393 910.929 37.3177 910.659 37.187C910.388 37.0563 910.106 36.991 909.812 36.991C909.518 36.991 909.235 37.0563 908.965 37.187C908.694 37.3177 908.454 37.5393 908.244 37.852C908.038 38.16 907.875 38.5683 907.754 39.077C907.632 39.5857 907.572 40.218 907.572 40.974C907.572 41.73 907.632 42.3623 907.754 42.871C907.875 43.3797 908.038 43.788 908.244 44.096C908.454 44.404 908.694 44.6233 908.965 44.754C909.235 44.8847 909.518 44.95 909.812 44.95C910.106 44.95 910.388 44.8847 910.659 44.754C910.929 44.6233 911.167 44.404 911.373 44.096C911.583 43.788 911.748 43.3797 911.87 42.871C911.996 42.3623 912.059 41.73 912.059 40.974ZM920.782 44.705C920.931 44.705 921.048 44.7493 921.132 44.838C921.216 44.922 921.258 45.034 921.258 45.174V46H914.51V45.531C914.51 45.4377 914.529 45.3397 914.566 45.237C914.603 45.1297 914.666 45.034 914.755 44.95L917.933 41.765C918.199 41.499 918.439 41.2423 918.654 40.995C918.869 40.7477 919.051 40.5027 919.2 40.26C919.349 40.0127 919.464 39.7607 919.543 39.504C919.627 39.2473 919.669 38.9767 919.669 38.692C919.669 38.412 919.625 38.167 919.536 37.957C919.447 37.7423 919.326 37.565 919.172 37.425C919.018 37.285 918.836 37.18 918.626 37.11C918.416 37.04 918.19 37.005 917.947 37.005C917.704 37.005 917.48 37.04 917.275 37.11C917.074 37.18 916.895 37.278 916.736 37.404C916.577 37.53 916.444 37.6793 916.337 37.852C916.23 38.0247 916.153 38.2113 916.106 38.412C916.041 38.5893 915.957 38.7083 915.854 38.769C915.756 38.8297 915.611 38.8437 915.42 38.811L914.706 38.685C914.771 38.2183 914.9 37.8077 915.091 37.453C915.282 37.0983 915.523 36.802 915.812 36.564C916.101 36.3213 916.433 36.1393 916.806 36.018C917.184 35.8967 917.59 35.836 918.024 35.836C918.463 35.836 918.866 35.9013 919.235 36.032C919.608 36.158 919.93 36.3423 920.201 36.585C920.472 36.8277 920.684 37.124 920.838 37.474C920.992 37.8193 921.069 38.2113 921.069 38.65C921.069 39.0233 921.013 39.371 920.901 39.693C920.794 40.0103 920.644 40.3137 920.453 40.603C920.266 40.8923 920.047 41.1747 919.795 41.45C919.548 41.7207 919.284 41.996 919.004 42.276L916.456 44.88C916.652 44.8287 916.848 44.7867 917.044 44.754C917.245 44.7213 917.434 44.705 917.611 44.705H920.782ZM922.869 38.685C922.939 38.2183 923.07 37.8077 923.261 37.453C923.452 37.0983 923.693 36.802 923.982 36.564C924.271 36.3213 924.603 36.1393 924.976 36.018C925.354 35.8967 925.76 35.836 926.194 35.836C926.628 35.836 927.027 35.899 927.391 36.025C927.755 36.1463 928.065 36.3213 928.322 36.55C928.583 36.774 928.786 37.0447 928.931 37.362C929.076 37.6793 929.148 38.0293 929.148 38.412C929.148 38.734 929.108 39.0187 929.029 39.266C928.95 39.5133 928.835 39.7303 928.686 39.917C928.541 40.1037 928.364 40.2623 928.154 40.393C927.944 40.519 927.708 40.624 927.447 40.708C928.086 40.8853 928.567 41.1747 928.889 41.576C929.211 41.9727 929.372 42.4767 929.372 43.088C929.372 43.5593 929.283 43.984 929.106 44.362C928.929 44.7353 928.686 45.0527 928.378 45.314C928.07 45.5707 927.711 45.769 927.3 45.909C926.894 46.0443 926.46 46.112 925.998 46.112C925.471 46.112 925.018 46.049 924.64 45.923C924.262 45.7923 923.94 45.6127 923.674 45.384C923.408 45.1507 923.186 44.873 923.009 44.551C922.836 44.2243 922.689 43.8673 922.568 43.48L923.163 43.228C923.317 43.1627 923.466 43.144 923.611 43.172C923.756 43.2 923.861 43.2817 923.926 43.417C923.996 43.557 924.075 43.7157 924.164 43.893C924.257 44.0657 924.381 44.2313 924.535 44.39C924.689 44.544 924.88 44.6747 925.109 44.782C925.342 44.8893 925.634 44.943 925.984 44.943C926.32 44.943 926.614 44.8893 926.866 44.782C927.118 44.67 927.328 44.5277 927.496 44.355C927.664 44.1777 927.79 43.9817 927.874 43.767C927.958 43.5523 928 43.34 928 43.13C928 42.8687 927.967 42.6283 927.902 42.409C927.837 42.1897 927.711 42.003 927.524 41.849C927.342 41.6903 927.088 41.5667 926.761 41.478C926.434 41.3893 926.01 41.345 925.487 41.345V40.351C925.916 40.3463 926.278 40.302 926.572 40.218C926.871 40.134 927.111 40.0173 927.293 39.868C927.475 39.7187 927.606 39.5413 927.685 39.336C927.769 39.1307 927.811 38.902 927.811 38.65C927.811 38.3747 927.769 38.1343 927.685 37.929C927.601 37.7237 927.482 37.5533 927.328 37.418C927.179 37.278 926.999 37.1753 926.789 37.11C926.584 37.04 926.36 37.005 926.117 37.005C925.874 37.005 925.65 37.04 925.445 37.11C925.24 37.18 925.058 37.278 924.899 37.404C924.74 37.53 924.607 37.6793 924.5 37.852C924.393 38.0247 924.316 38.2113 924.269 38.412C924.204 38.5893 924.12 38.7083 924.017 38.769C923.919 38.8297 923.777 38.8437 923.59 38.811L922.869 38.685ZM934.902 35.241H935.966V48.436H934.902V35.241ZM948.413 37.194H945.221V46H943.737V37.194H940.531V35.948H948.413V37.194ZM950.915 38.776C951.437 38.776 951.909 38.8623 952.329 39.035C952.753 39.203 953.113 39.448 953.407 39.77C953.705 40.0873 953.934 40.4723 954.093 40.925C954.251 41.373 954.331 41.877 954.331 42.437C954.331 42.997 954.251 43.5033 954.093 43.956C953.934 44.4087 953.705 44.7937 953.407 45.111C953.113 45.4283 952.753 45.6733 952.329 45.846C951.909 46.014 951.437 46.098 950.915 46.098C950.387 46.098 949.911 46.014 949.487 45.846C949.067 45.6733 948.707 45.4283 948.409 45.111C948.11 44.7937 947.879 44.4087 947.716 43.956C947.557 43.5033 947.478 42.997 947.478 42.437C947.478 41.877 947.557 41.373 947.716 40.925C947.879 40.4723 948.11 40.0873 948.409 39.77C948.707 39.448 949.067 39.203 949.487 39.035C949.911 38.8623 950.387 38.776 950.915 38.776ZM950.915 45.034C951.587 45.034 952.088 44.8077 952.42 44.355C952.751 43.9023 952.917 43.2653 952.917 42.444C952.917 41.6227 952.751 40.9857 952.42 40.533C952.088 40.0757 951.587 39.847 950.915 39.847C950.233 39.847 949.725 40.0757 949.389 40.533C949.057 40.9857 948.892 41.6227 948.892 42.444C948.892 43.2653 949.057 43.9023 949.389 44.355C949.725 44.8077 950.233 45.034 950.915 45.034ZM960.44 40.61C960.216 40.316 959.973 40.1107 959.712 39.994C959.455 39.8773 959.166 39.819 958.844 39.819C958.218 39.819 957.733 40.0453 957.388 40.498C957.047 40.946 956.877 41.6017 956.877 42.465C956.877 42.9177 956.914 43.305 956.989 43.627C957.068 43.9443 957.18 44.2057 957.325 44.411C957.474 44.6117 957.656 44.761 957.871 44.859C958.085 44.9523 958.328 44.999 958.599 44.999C958.995 44.999 959.338 44.9103 959.628 44.733C959.917 44.5557 960.188 44.306 960.44 43.984V40.61ZM961.812 35.668V46H960.986C960.794 46 960.675 45.909 960.629 45.727L960.51 44.908C960.206 45.2673 959.861 45.5567 959.474 45.776C959.091 45.9907 958.648 46.098 958.144 46.098C957.738 46.098 957.369 46.0187 957.038 45.86C956.711 45.7013 956.431 45.4703 956.198 45.167C955.964 44.859 955.785 44.4787 955.659 44.026C955.533 43.5733 955.47 43.053 955.47 42.465C955.47 41.9377 955.54 41.4477 955.68 40.995C955.82 40.5423 956.023 40.1503 956.289 39.819C956.555 39.4877 956.877 39.2287 957.255 39.042C957.633 38.8507 958.06 38.755 958.536 38.755C958.965 38.755 959.329 38.825 959.628 38.965C959.931 39.105 960.202 39.3033 960.44 39.56V35.668H961.812ZM966.747 38.776C967.27 38.776 967.741 38.8623 968.161 39.035C968.586 39.203 968.945 39.448 969.239 39.77C969.538 40.0873 969.766 40.4723 969.925 40.925C970.084 41.373 970.163 41.877 970.163 42.437C970.163 42.997 970.084 43.5033 969.925 43.956C969.766 44.4087 969.538 44.7937 969.239 45.111C968.945 45.4283 968.586 45.6733 968.161 45.846C967.741 46.014 967.27 46.098 966.747 46.098C966.22 46.098 965.744 46.014 965.319 45.846C964.899 45.6733 964.54 45.4283 964.241 45.111C963.942 44.7937 963.711 44.4087 963.548 43.956C963.389 43.5033 963.31 42.997 963.31 42.437C963.31 41.877 963.389 41.373 963.548 40.925C963.711 40.4723 963.942 40.0873 964.241 39.77C964.54 39.448 964.899 39.203 965.319 39.035C965.744 38.8623 966.22 38.776 966.747 38.776ZM966.747 45.034C967.419 45.034 967.921 44.8077 968.252 44.355C968.583 43.9023 968.749 43.2653 968.749 42.444C968.749 41.6227 968.583 40.9857 968.252 40.533C967.921 40.0757 967.419 39.847 966.747 39.847C966.066 39.847 965.557 40.0757 965.221 40.533C964.89 40.9857 964.724 41.6227 964.724 42.444C964.724 43.2653 964.89 43.9023 965.221 44.355C965.557 44.8077 966.066 45.034 966.747 45.034ZM975.88 40.113C975.842 40.1737 975.803 40.218 975.761 40.246C975.719 40.2693 975.665 40.281 975.6 40.281C975.525 40.281 975.441 40.2553 975.348 40.204C975.259 40.1527 975.149 40.0967 975.019 40.036C974.893 39.9753 974.743 39.9193 974.571 39.868C974.398 39.8167 974.193 39.791 973.955 39.791C973.759 39.791 973.579 39.8167 973.416 39.868C973.257 39.9147 973.122 39.9823 973.01 40.071C972.898 40.155 972.811 40.2577 972.751 40.379C972.69 40.4957 972.66 40.6217 972.66 40.757C972.66 40.9343 972.711 41.0813 972.814 41.198C972.921 41.3147 973.059 41.415 973.227 41.499C973.399 41.583 973.593 41.66 973.808 41.73C974.027 41.7953 974.249 41.8653 974.473 41.94C974.701 42.0147 974.923 42.101 975.138 42.199C975.357 42.2923 975.551 42.4113 975.719 42.556C975.891 42.696 976.029 42.8663 976.132 43.067C976.239 43.2677 976.293 43.5127 976.293 43.802C976.293 44.1333 976.232 44.4413 976.111 44.726C975.994 45.006 975.819 45.2487 975.586 45.454C975.357 45.6593 975.072 45.8203 974.732 45.937C974.391 46.0537 974.001 46.112 973.563 46.112C973.073 46.112 972.62 46.0303 972.205 45.867C971.789 45.7037 971.442 45.496 971.162 45.244L971.484 44.719C971.521 44.6537 971.568 44.6047 971.624 44.572C971.68 44.5347 971.754 44.516 971.848 44.516C971.936 44.516 972.027 44.5487 972.121 44.614C972.214 44.6793 972.326 44.7517 972.457 44.831C972.587 44.9057 972.746 44.9757 972.933 45.041C973.119 45.1017 973.353 45.132 973.633 45.132C973.866 45.132 974.069 45.104 974.242 45.048C974.414 44.9873 974.557 44.908 974.669 44.81C974.785 44.7073 974.872 44.5907 974.928 44.46C974.984 44.3293 975.012 44.1917 975.012 44.047C975.012 43.8603 974.958 43.7063 974.851 43.585C974.748 43.459 974.61 43.3517 974.438 43.263C974.27 43.1743 974.076 43.0973 973.857 43.032C973.637 42.9667 973.413 42.8967 973.185 42.822C972.956 42.7473 972.732 42.661 972.513 42.563C972.293 42.465 972.097 42.3413 971.925 42.192C971.757 42.0427 971.619 41.8607 971.512 41.646C971.409 41.4313 971.358 41.17 971.358 40.862C971.358 40.5867 971.414 40.323 971.526 40.071C971.642 39.819 971.808 39.5973 972.023 39.406C972.242 39.2147 972.51 39.063 972.828 38.951C973.15 38.8343 973.516 38.776 973.927 38.776C974.398 38.776 974.823 38.8507 975.201 39C975.583 39.1493 975.91 39.3547 976.181 39.616L975.88 40.113ZM984.343 38.776C984.865 38.776 985.337 38.8623 985.757 39.035C986.181 39.203 986.541 39.448 986.835 39.77C987.133 40.0873 987.362 40.4723 987.521 40.925C987.679 41.373 987.759 41.877 987.759 42.437C987.759 42.997 987.679 43.5033 987.521 43.956C987.362 44.4087 987.133 44.7937 986.835 45.111C986.541 45.4283 986.181 45.6733 985.757 45.846C985.337 46.014 984.865 46.098 984.343 46.098C983.815 46.098 983.339 46.014 982.915 45.846C982.495 45.6733 982.135 45.4283 981.837 45.111C981.538 44.7937 981.307 44.4087 981.144 43.956C980.985 43.5033 980.906 42.997 980.906 42.437C980.906 41.877 980.985 41.373 981.144 40.925C981.307 40.4723 981.538 40.0873 981.837 39.77C982.135 39.448 982.495 39.203 982.915 39.035C983.339 38.8623 983.815 38.776 984.343 38.776ZM984.343 45.034C985.015 45.034 985.516 44.8077 985.848 44.355C986.179 43.9023 986.345 43.2653 986.345 42.444C986.345 41.6227 986.179 40.9857 985.848 40.533C985.516 40.0757 985.015 39.847 984.343 39.847C983.661 39.847 983.153 40.0757 982.817 40.533C982.485 40.9857 982.32 41.6227 982.32 42.444C982.32 43.2653 982.485 43.9023 982.817 44.355C983.153 44.8077 983.661 45.034 984.343 45.034ZM993.475 40.113C993.438 40.1737 993.398 40.218 993.356 40.246C993.314 40.2693 993.261 40.281 993.195 40.281C993.121 40.281 993.037 40.2553 992.943 40.204C992.855 40.1527 992.745 40.0967 992.614 40.036C992.488 39.9753 992.339 39.9193 992.166 39.868C991.994 39.8167 991.788 39.791 991.55 39.791C991.354 39.791 991.175 39.8167 991.011 39.868C990.853 39.9147 990.717 39.9823 990.605 40.071C990.493 40.155 990.407 40.2577 990.346 40.379C990.286 40.4957 990.255 40.6217 990.255 40.757C990.255 40.9343 990.307 41.0813 990.409 41.198C990.517 41.3147 990.654 41.415 990.822 41.499C990.995 41.583 991.189 41.66 991.403 41.73C991.623 41.7953 991.844 41.8653 992.068 41.94C992.297 42.0147 992.519 42.101 992.733 42.199C992.953 42.2923 993.146 42.4113 993.314 42.556C993.487 42.696 993.625 42.8663 993.727 43.067C993.835 43.2677 993.888 43.5127 993.888 43.802C993.888 44.1333 993.828 44.4413 993.706 44.726C993.59 45.006 993.415 45.2487 993.181 45.454C992.953 45.6593 992.668 45.8203 992.327 45.937C991.987 46.0537 991.597 46.112 991.158 46.112C990.668 46.112 990.216 46.0303 989.8 45.867C989.385 45.7037 989.037 45.496 988.757 45.244L989.079 44.719C989.117 44.6537 989.163 44.6047 989.219 44.572C989.275 44.5347 989.35 44.516 989.443 44.516C989.532 44.516 989.623 44.5487 989.716 44.614C989.81 44.6793 989.922 44.7517 990.052 44.831C990.183 44.9057 990.342 44.9757 990.528 45.041C990.715 45.1017 990.948 45.132 991.228 45.132C991.462 45.132 991.665 45.104 991.837 45.048C992.01 44.9873 992.152 44.908 992.264 44.81C992.381 44.7073 992.467 44.5907 992.523 44.46C992.579 44.3293 992.607 44.1917 992.607 44.047C992.607 43.8603 992.554 43.7063 992.446 43.585C992.344 43.459 992.206 43.3517 992.033 43.263C991.865 43.1743 991.672 43.0973 991.452 43.032C991.233 42.9667 991.009 42.8967 990.78 42.822C990.552 42.7473 990.328 42.661 990.108 42.563C989.889 42.465 989.693 42.3413 989.52 42.192C989.352 42.0427 989.215 41.8607 989.107 41.646C989.005 41.4313 988.953 41.17 988.953 40.862C988.953 40.5867 989.009 40.323 989.121 40.071C989.238 39.819 989.404 39.5973 989.618 39.406C989.838 39.2147 990.106 39.063 990.423 38.951C990.745 38.8343 991.112 38.776 991.522 38.776C991.994 38.776 992.418 38.8507 992.796 39C993.179 39.1493 993.506 39.3547 993.776 39.616L993.475 40.113ZM1003.49 40.61C1003.27 40.316 1003.03 40.1107 1002.76 39.994C1002.51 39.8773 1002.22 39.819 1001.9 39.819C1001.27 39.819 1000.79 40.0453 1000.44 40.498C1000.1 40.946 999.929 41.6017 999.929 42.465C999.929 42.9177 999.967 43.305 1000.04 43.627C1000.12 43.9443 1000.23 44.2057 1000.38 44.411C1000.53 44.6117 1000.71 44.761 1000.92 44.859C1001.14 44.9523 1001.38 44.999 1001.65 44.999C1002.05 44.999 1002.39 44.9103 1002.68 44.733C1002.97 44.5557 1003.24 44.306 1003.49 43.984V40.61ZM1004.86 35.668V46H1004.04C1003.85 46 1003.73 45.909 1003.68 45.727L1003.56 44.908C1003.26 45.2673 1002.91 45.5567 1002.53 45.776C1002.14 45.9907 1001.7 46.098 1001.2 46.098C1000.79 46.098 1000.42 46.0187 1000.09 45.86C999.764 45.7013 999.484 45.4703 999.25 45.167C999.017 44.859 998.837 44.4787 998.711 44.026C998.585 43.5733 998.522 43.053 998.522 42.465C998.522 41.9377 998.592 41.4477 998.732 40.995C998.872 40.5423 999.075 40.1503 999.341 39.819C999.607 39.4877 999.929 39.2287 1000.31 39.042C1000.69 38.8507 1001.11 38.755 1001.59 38.755C1002.02 38.755 1002.38 38.825 1002.68 38.965C1002.98 39.105 1003.25 39.3033 1003.49 39.56V35.668H1004.86ZM1008.2 38.888V46H1006.83V38.888H1008.2ZM1008.46 36.69C1008.46 36.816 1008.43 36.9373 1008.38 37.054C1008.33 37.166 1008.26 37.2663 1008.17 37.355C1008.08 37.439 1007.98 37.5067 1007.87 37.558C1007.75 37.6047 1007.63 37.628 1007.5 37.628C1007.38 37.628 1007.26 37.6047 1007.15 37.558C1007.03 37.5067 1006.93 37.439 1006.85 37.355C1006.76 37.2663 1006.69 37.166 1006.64 37.054C1006.6 36.9373 1006.57 36.816 1006.57 36.69C1006.57 36.5593 1006.6 36.438 1006.64 36.326C1006.69 36.2093 1006.76 36.109 1006.85 36.025C1006.93 35.9363 1007.03 35.8687 1007.15 35.822C1007.26 35.7707 1007.38 35.745 1007.5 35.745C1007.63 35.745 1007.75 35.7707 1007.87 35.822C1007.98 35.8687 1008.08 35.9363 1008.17 36.025C1008.26 36.109 1008.33 36.2093 1008.38 36.326C1008.43 36.438 1008.46 36.5593 1008.46 36.69ZM1011.46 40.253C1011.69 39.7863 1011.96 39.42 1012.29 39.154C1012.61 38.888 1013 38.755 1013.45 38.755C1013.6 38.755 1013.75 38.7737 1013.88 38.811C1014.02 38.8437 1014.14 38.895 1014.25 38.965L1014.16 39.994C1014.12 40.12 1014.05 40.183 1013.92 40.183C1013.86 40.183 1013.76 40.1713 1013.63 40.148C1013.5 40.12 1013.36 40.106 1013.21 40.106C1012.99 40.106 1012.8 40.1387 1012.63 40.204C1012.46 40.2647 1012.31 40.358 1012.17 40.484C1012.04 40.6053 1011.93 40.757 1011.82 40.939C1011.72 41.1163 1011.63 41.3193 1011.54 41.548V46H1010.17V38.888H1010.96C1011.11 38.888 1011.21 38.916 1011.26 38.972C1011.31 39.0233 1011.35 39.1167 1011.38 39.252L1011.46 40.253ZM1019.75 41.653C1019.75 41.3823 1019.71 41.1327 1019.63 40.904C1019.56 40.6753 1019.45 40.477 1019.3 40.309C1019.15 40.141 1018.96 40.0103 1018.75 39.917C1018.54 39.8237 1018.29 39.777 1018.01 39.777C1017.43 39.777 1016.98 39.9427 1016.65 40.274C1016.32 40.6053 1016.12 41.065 1016.03 41.653H1019.75ZM1020.88 44.985C1020.71 45.181 1020.52 45.3513 1020.3 45.496C1020.08 45.636 1019.84 45.7503 1019.6 45.839C1019.35 45.9277 1019.09 45.993 1018.83 46.035C1018.57 46.077 1018.31 46.098 1018.05 46.098C1017.56 46.098 1017.11 46.0163 1016.69 45.853C1016.27 45.685 1015.91 45.4423 1015.6 45.125C1015.3 44.803 1015.06 44.4063 1014.89 43.935C1014.72 43.459 1014.63 42.913 1014.63 42.297C1014.63 41.8023 1014.71 41.3427 1014.87 40.918C1015.02 40.4887 1015.24 40.1153 1015.52 39.798C1015.81 39.4807 1016.16 39.231 1016.58 39.049C1017 38.867 1017.46 38.776 1017.98 38.776C1018.41 38.776 1018.81 38.8483 1019.18 38.993C1019.55 39.133 1019.86 39.3383 1020.13 39.609C1020.4 39.8797 1020.6 40.2133 1020.75 40.61C1020.91 41.0067 1020.98 41.4593 1020.98 41.968C1020.98 42.178 1020.96 42.3203 1020.91 42.395C1020.87 42.465 1020.78 42.5 1020.65 42.5H1015.99C1016.01 42.9247 1016.07 43.2957 1016.17 43.613C1016.28 43.9257 1016.43 44.187 1016.62 44.397C1016.81 44.607 1017.03 44.7633 1017.29 44.866C1017.56 44.9687 1017.85 45.02 1018.17 45.02C1018.47 45.02 1018.73 44.985 1018.95 44.915C1019.18 44.845 1019.37 44.7703 1019.53 44.691C1019.69 44.607 1019.83 44.53 1019.93 44.46C1020.05 44.39 1020.14 44.355 1020.23 44.355C1020.34 44.355 1020.43 44.397 1020.49 44.481L1020.88 44.985ZM1023.88 38.888V46H1022.51V38.888H1023.88ZM1024.14 36.69C1024.14 36.816 1024.11 36.9373 1024.06 37.054C1024.01 37.166 1023.94 37.2663 1023.85 37.355C1023.77 37.439 1023.67 37.5067 1023.55 37.558C1023.43 37.6047 1023.31 37.628 1023.19 37.628C1023.06 37.628 1022.94 37.6047 1022.83 37.558C1022.72 37.5067 1022.62 37.439 1022.53 37.355C1022.44 37.2663 1022.38 37.166 1022.32 37.054C1022.28 36.9373 1022.25 36.816 1022.25 36.69C1022.25 36.5593 1022.28 36.438 1022.32 36.326C1022.38 36.2093 1022.44 36.109 1022.53 36.025C1022.62 35.9363 1022.72 35.8687 1022.83 35.822C1022.94 35.7707 1023.06 35.745 1023.19 35.745C1023.31 35.745 1023.43 35.7707 1023.55 35.822C1023.67 35.8687 1023.77 35.9363 1023.85 36.025C1023.94 36.109 1024.01 36.2093 1024.06 36.326C1024.11 36.438 1024.14 36.5593 1024.14 36.69ZM1028.08 46.112C1027.51 46.112 1027.06 45.951 1026.75 45.629C1026.44 45.307 1026.29 44.8473 1026.29 44.25V39.994H1025.46C1025.38 39.994 1025.32 39.9707 1025.26 39.924C1025.21 39.8727 1025.18 39.798 1025.18 39.7V39.147L1026.34 38.986L1026.65 36.865C1026.66 36.7857 1026.7 36.725 1026.75 36.683C1026.81 36.6363 1026.88 36.613 1026.96 36.613H1027.65V39H1029.67V39.994H1027.65V44.159C1027.65 44.439 1027.72 44.649 1027.86 44.789C1028 44.9243 1028.17 44.992 1028.39 44.992C1028.51 44.992 1028.62 44.9757 1028.71 44.943C1028.8 44.9103 1028.88 44.8753 1028.95 44.838C1029.01 44.796 1029.07 44.7587 1029.12 44.726C1029.16 44.6933 1029.21 44.677 1029.24 44.677C1029.29 44.677 1029.32 44.6887 1029.35 44.712C1029.38 44.7307 1029.4 44.7633 1029.43 44.81L1029.84 45.468C1029.61 45.6733 1029.35 45.832 1029.04 45.944C1028.73 46.056 1028.41 46.112 1028.08 46.112ZM1033.92 38.776C1034.44 38.776 1034.91 38.8623 1035.33 39.035C1035.76 39.203 1036.11 39.448 1036.41 39.77C1036.71 40.0873 1036.94 40.4723 1037.09 40.925C1037.25 41.373 1037.33 41.877 1037.33 42.437C1037.33 42.997 1037.25 43.5033 1037.09 43.956C1036.94 44.4087 1036.71 44.7937 1036.41 45.111C1036.11 45.4283 1035.76 45.6733 1035.33 45.846C1034.91 46.014 1034.44 46.098 1033.92 46.098C1033.39 46.098 1032.91 46.014 1032.49 45.846C1032.07 45.6733 1031.71 45.4283 1031.41 45.111C1031.11 44.7937 1030.88 44.4087 1030.72 43.956C1030.56 43.5033 1030.48 42.997 1030.48 42.437C1030.48 41.877 1030.56 41.373 1030.72 40.925C1030.88 40.4723 1031.11 40.0873 1031.41 39.77C1031.71 39.448 1032.07 39.203 1032.49 39.035C1032.91 38.8623 1033.39 38.776 1033.92 38.776ZM1033.92 45.034C1034.59 45.034 1035.09 44.8077 1035.42 44.355C1035.75 43.9023 1035.92 43.2653 1035.92 42.444C1035.92 41.6227 1035.75 40.9857 1035.42 40.533C1035.09 40.0757 1034.59 39.847 1033.92 39.847C1033.24 39.847 1032.73 40.0757 1032.39 40.533C1032.06 40.9857 1031.89 41.6227 1031.89 42.444C1031.89 43.2653 1032.06 43.9023 1032.39 44.355C1032.73 44.8077 1033.24 45.034 1033.92 45.034ZM1043.05 40.113C1043.01 40.1737 1042.97 40.218 1042.93 40.246C1042.89 40.2693 1042.83 40.281 1042.77 40.281C1042.69 40.281 1042.61 40.2553 1042.52 40.204C1042.43 40.1527 1042.32 40.0967 1042.19 40.036C1042.06 39.9753 1041.91 39.9193 1041.74 39.868C1041.57 39.8167 1041.36 39.791 1041.12 39.791C1040.93 39.791 1040.75 39.8167 1040.59 39.868C1040.43 39.9147 1040.29 39.9823 1040.18 40.071C1040.07 40.155 1039.98 40.2577 1039.92 40.379C1039.86 40.4957 1039.83 40.6217 1039.83 40.757C1039.83 40.9343 1039.88 41.0813 1039.98 41.198C1040.09 41.3147 1040.23 41.415 1040.4 41.499C1040.57 41.583 1040.76 41.66 1040.98 41.73C1041.2 41.7953 1041.42 41.8653 1041.64 41.94C1041.87 42.0147 1042.09 42.101 1042.31 42.199C1042.53 42.2923 1042.72 42.4113 1042.89 42.556C1043.06 42.696 1043.2 42.8663 1043.3 43.067C1043.41 43.2677 1043.46 43.5127 1043.46 43.802C1043.46 44.1333 1043.4 44.4413 1043.28 44.726C1043.16 45.006 1042.99 45.2487 1042.76 45.454C1042.53 45.6593 1042.24 45.8203 1041.9 45.937C1041.56 46.0537 1041.17 46.112 1040.73 46.112C1040.24 46.112 1039.79 46.0303 1039.37 45.867C1038.96 45.7037 1038.61 45.496 1038.33 45.244L1038.65 44.719C1038.69 44.6537 1038.74 44.6047 1038.79 44.572C1038.85 44.5347 1038.92 44.516 1039.02 44.516C1039.11 44.516 1039.2 44.5487 1039.29 44.614C1039.38 44.6793 1039.5 44.7517 1039.63 44.831C1039.76 44.9057 1039.92 44.9757 1040.1 45.041C1040.29 45.1017 1040.52 45.132 1040.8 45.132C1041.04 45.132 1041.24 45.104 1041.41 45.048C1041.58 44.9873 1041.73 44.908 1041.84 44.81C1041.96 44.7073 1042.04 44.5907 1042.1 44.46C1042.15 44.3293 1042.18 44.1917 1042.18 44.047C1042.18 43.8603 1042.13 43.7063 1042.02 43.585C1041.92 43.459 1041.78 43.3517 1041.61 43.263C1041.44 43.1743 1041.25 43.0973 1041.03 43.032C1040.81 42.9667 1040.58 42.8967 1040.35 42.822C1040.13 42.7473 1039.9 42.661 1039.68 42.563C1039.46 42.465 1039.27 42.3413 1039.09 42.192C1038.93 42.0427 1038.79 41.8607 1038.68 41.646C1038.58 41.4313 1038.53 41.17 1038.53 40.862C1038.53 40.5867 1038.58 40.323 1038.7 40.071C1038.81 39.819 1038.98 39.5973 1039.19 39.406C1039.41 39.2147 1039.68 39.063 1040 38.951C1040.32 38.8343 1040.69 38.776 1041.1 38.776C1041.57 38.776 1041.99 38.8507 1042.37 39C1042.75 39.1493 1043.08 39.3547 1043.35 39.616L1043.05 40.113ZM1049.77 40.253C1050 39.7863 1050.27 39.42 1050.6 39.154C1050.92 38.888 1051.3 38.755 1051.76 38.755C1051.91 38.755 1052.06 38.7737 1052.19 38.811C1052.33 38.8437 1052.45 38.895 1052.56 38.965L1052.46 39.994C1052.43 40.12 1052.35 40.183 1052.23 40.183C1052.17 40.183 1052.07 40.1713 1051.94 40.148C1051.81 40.12 1051.67 40.106 1051.52 40.106C1051.3 40.106 1051.11 40.1387 1050.94 40.204C1050.77 40.2647 1050.62 40.358 1050.48 40.484C1050.35 40.6053 1050.24 40.757 1050.13 40.939C1050.03 41.1163 1049.94 41.3193 1049.85 41.548V46H1048.48V38.888H1049.27C1049.41 38.888 1049.52 38.916 1049.57 38.972C1049.62 39.0233 1049.66 39.1167 1049.69 39.252L1049.77 40.253ZM1058.06 41.653C1058.06 41.3823 1058.02 41.1327 1057.94 40.904C1057.87 40.6753 1057.75 40.477 1057.6 40.309C1057.46 40.141 1057.27 40.0103 1057.06 39.917C1056.84 39.8237 1056.6 39.777 1056.32 39.777C1055.74 39.777 1055.29 39.9427 1054.96 40.274C1054.63 40.6053 1054.42 41.065 1054.34 41.653H1058.06ZM1059.19 44.985C1059.02 45.181 1058.82 45.3513 1058.61 45.496C1058.39 45.636 1058.15 45.7503 1057.91 45.839C1057.66 45.9277 1057.4 45.993 1057.14 46.035C1056.87 46.077 1056.62 46.098 1056.36 46.098C1055.87 46.098 1055.41 46.0163 1054.99 45.853C1054.58 45.685 1054.22 45.4423 1053.91 45.125C1053.61 44.803 1053.37 44.4063 1053.19 43.935C1053.03 43.459 1052.94 42.913 1052.94 42.297C1052.94 41.8023 1053.02 41.3427 1053.17 40.918C1053.33 40.4887 1053.55 40.1153 1053.83 39.798C1054.12 39.4807 1054.47 39.231 1054.89 39.049C1055.3 38.867 1055.77 38.776 1056.29 38.776C1056.72 38.776 1057.12 38.8483 1057.49 38.993C1057.85 39.133 1058.17 39.3383 1058.44 39.609C1058.7 39.8797 1058.91 40.2133 1059.06 40.61C1059.21 41.0067 1059.29 41.4593 1059.29 41.968C1059.29 42.178 1059.27 42.3203 1059.22 42.395C1059.17 42.465 1059.09 42.5 1058.96 42.5H1054.3C1054.31 42.9247 1054.38 43.2957 1054.48 43.613C1054.59 43.9257 1054.74 44.187 1054.92 44.397C1055.11 44.607 1055.34 44.7633 1055.6 44.866C1055.86 44.9687 1056.16 45.02 1056.48 45.02C1056.78 45.02 1057.04 44.985 1057.26 44.915C1057.49 44.845 1057.68 44.7703 1057.84 44.691C1058 44.607 1058.13 44.53 1058.24 44.46C1058.35 44.39 1058.45 44.355 1058.54 44.355C1058.65 44.355 1058.73 44.397 1058.79 44.481L1059.19 44.985ZM1064.95 40.113C1064.91 40.1737 1064.87 40.218 1064.83 40.246C1064.79 40.2693 1064.74 40.281 1064.67 40.281C1064.6 40.281 1064.51 40.2553 1064.42 40.204C1064.33 40.1527 1064.22 40.0967 1064.09 40.036C1063.96 39.9753 1063.82 39.9193 1063.64 39.868C1063.47 39.8167 1063.26 39.791 1063.03 39.791C1062.83 39.791 1062.65 39.8167 1062.49 39.868C1062.33 39.9147 1062.19 39.9823 1062.08 40.071C1061.97 40.155 1061.88 40.2577 1061.82 40.379C1061.76 40.4957 1061.73 40.6217 1061.73 40.757C1061.73 40.9343 1061.78 41.0813 1061.89 41.198C1061.99 41.3147 1062.13 41.415 1062.3 41.499C1062.47 41.583 1062.67 41.66 1062.88 41.73C1063.1 41.7953 1063.32 41.8653 1063.54 41.94C1063.77 42.0147 1064 42.101 1064.21 42.199C1064.43 42.2923 1064.62 42.4113 1064.79 42.556C1064.96 42.696 1065.1 42.8663 1065.2 43.067C1065.31 43.2677 1065.36 43.5127 1065.36 43.802C1065.36 44.1333 1065.3 44.4413 1065.18 44.726C1065.07 45.006 1064.89 45.2487 1064.66 45.454C1064.43 45.6593 1064.14 45.8203 1063.8 45.937C1063.46 46.0537 1063.07 46.112 1062.63 46.112C1062.14 46.112 1061.69 46.0303 1061.28 45.867C1060.86 45.7037 1060.51 45.496 1060.23 45.244L1060.56 44.719C1060.59 44.6537 1060.64 44.6047 1060.7 44.572C1060.75 44.5347 1060.83 44.516 1060.92 44.516C1061.01 44.516 1061.1 44.5487 1061.19 44.614C1061.29 44.6793 1061.4 44.7517 1061.53 44.831C1061.66 44.9057 1061.82 44.9757 1062 45.041C1062.19 45.1017 1062.42 45.132 1062.7 45.132C1062.94 45.132 1063.14 45.104 1063.31 45.048C1063.49 44.9873 1063.63 44.908 1063.74 44.81C1063.86 44.7073 1063.94 44.5907 1064 44.46C1064.06 44.3293 1064.08 44.1917 1064.08 44.047C1064.08 43.8603 1064.03 43.7063 1063.92 43.585C1063.82 43.459 1063.68 43.3517 1063.51 43.263C1063.34 43.1743 1063.15 43.0973 1062.93 43.032C1062.71 42.9667 1062.49 42.8967 1062.26 42.822C1062.03 42.7473 1061.8 42.661 1061.58 42.563C1061.37 42.465 1061.17 42.3413 1061 42.192C1060.83 42.0427 1060.69 41.8607 1060.58 41.646C1060.48 41.4313 1060.43 41.17 1060.43 40.862C1060.43 40.5867 1060.49 40.323 1060.6 40.071C1060.71 39.819 1060.88 39.5973 1061.09 39.406C1061.31 39.2147 1061.58 39.063 1061.9 38.951C1062.22 38.8343 1062.59 38.776 1063 38.776C1063.47 38.776 1063.89 38.8507 1064.27 39C1064.66 39.1493 1064.98 39.3547 1065.25 39.616L1064.95 40.113ZM1071.55 41.653C1071.55 41.3823 1071.51 41.1327 1071.43 40.904C1071.36 40.6753 1071.25 40.477 1071.1 40.309C1070.95 40.141 1070.77 40.0103 1070.55 39.917C1070.34 39.8237 1070.09 39.777 1069.81 39.777C1069.24 39.777 1068.78 39.9427 1068.45 40.274C1068.13 40.6053 1067.92 41.065 1067.83 41.653H1071.55ZM1072.68 44.985C1072.51 45.181 1072.32 45.3513 1072.1 45.496C1071.88 45.636 1071.65 45.7503 1071.4 45.839C1071.15 45.9277 1070.9 45.993 1070.63 46.035C1070.37 46.077 1070.11 46.098 1069.85 46.098C1069.36 46.098 1068.91 46.0163 1068.49 45.853C1068.07 45.685 1067.71 45.4423 1067.4 45.125C1067.1 44.803 1066.86 44.4063 1066.69 43.935C1066.52 43.459 1066.44 42.913 1066.44 42.297C1066.44 41.8023 1066.51 41.3427 1066.67 40.918C1066.82 40.4887 1067.04 40.1153 1067.33 39.798C1067.62 39.4807 1067.97 39.231 1068.38 39.049C1068.8 38.867 1069.26 38.776 1069.78 38.776C1070.22 38.776 1070.62 38.8483 1070.98 38.993C1071.35 39.133 1071.67 39.3383 1071.93 39.609C1072.2 39.8797 1072.41 40.2133 1072.55 40.61C1072.71 41.0067 1072.79 41.4593 1072.79 41.968C1072.79 42.178 1072.76 42.3203 1072.72 42.395C1072.67 42.465 1072.58 42.5 1072.46 42.5H1067.79C1067.81 42.9247 1067.87 43.2957 1067.98 43.613C1068.08 43.9257 1068.23 44.187 1068.42 44.397C1068.61 44.607 1068.84 44.7633 1069.1 44.866C1069.36 44.9687 1069.65 45.02 1069.97 45.02C1070.28 45.02 1070.54 44.985 1070.76 44.915C1070.98 44.845 1071.17 44.7703 1071.33 44.691C1071.49 44.607 1071.63 44.53 1071.74 44.46C1071.85 44.39 1071.95 44.355 1072.03 44.355C1072.14 44.355 1072.23 44.397 1072.29 44.481L1072.68 44.985ZM1075.54 40.253C1075.77 39.7863 1076.04 39.42 1076.37 39.154C1076.69 38.888 1077.08 38.755 1077.53 38.755C1077.68 38.755 1077.83 38.7737 1077.96 38.811C1078.1 38.8437 1078.22 38.895 1078.33 38.965L1078.24 39.994C1078.2 40.12 1078.13 40.183 1078 40.183C1077.94 40.183 1077.84 40.1713 1077.71 40.148C1077.58 40.12 1077.44 40.106 1077.29 40.106C1077.07 40.106 1076.88 40.1387 1076.71 40.204C1076.54 40.2647 1076.39 40.358 1076.25 40.484C1076.12 40.6053 1076.01 40.757 1075.9 40.939C1075.8 41.1163 1075.71 41.3193 1075.62 41.548V46H1074.25V38.888H1075.04C1075.19 38.888 1075.29 38.916 1075.34 38.972C1075.39 39.0233 1075.43 39.1167 1075.46 39.252L1075.54 40.253ZM1085.55 38.888L1082.67 46H1081.44L1078.55 38.888H1079.68C1079.79 38.888 1079.88 38.9137 1079.95 38.965C1080.02 39.0163 1080.06 39.0817 1080.09 39.161L1081.79 43.529C1081.85 43.711 1081.9 43.893 1081.94 44.075C1081.99 44.2523 1082.03 44.4297 1082.07 44.607C1082.11 44.4297 1082.15 44.2523 1082.19 44.075C1082.24 43.8977 1082.3 43.7157 1082.36 43.529L1084.08 39.161C1084.11 39.0817 1084.16 39.0163 1084.23 38.965C1084.3 38.9137 1084.38 38.888 1084.48 38.888H1085.55ZM1090.3 42.843C1089.74 42.8617 1089.27 42.906 1088.88 42.976C1088.5 43.0413 1088.18 43.13 1087.94 43.242C1087.7 43.354 1087.52 43.487 1087.41 43.641C1087.31 43.7903 1087.25 43.9583 1087.25 44.145C1087.25 44.3223 1087.28 44.4763 1087.34 44.607C1087.4 44.733 1087.48 44.838 1087.57 44.922C1087.68 45.0013 1087.8 45.0597 1087.93 45.097C1088.07 45.1343 1088.21 45.153 1088.37 45.153C1088.58 45.153 1088.77 45.132 1088.95 45.09C1089.12 45.048 1089.29 44.9897 1089.44 44.915C1089.6 44.8357 1089.74 44.74 1089.88 44.628C1090.02 44.516 1090.16 44.3877 1090.3 44.243V42.843ZM1086.29 39.882C1086.69 39.504 1087.12 39.2217 1087.58 39.035C1088.05 38.8483 1088.56 38.755 1089.11 38.755C1089.52 38.755 1089.88 38.8227 1090.19 38.958C1090.51 39.0887 1090.77 39.273 1090.98 39.511C1091.2 39.749 1091.36 40.0337 1091.47 40.365C1091.58 40.6963 1091.63 41.0627 1091.63 41.464V46H1091.03C1090.89 46 1090.79 45.979 1090.72 45.937C1090.65 45.8903 1090.59 45.8063 1090.55 45.685L1090.4 45.062C1090.22 45.23 1090.04 45.3793 1089.86 45.51C1089.69 45.636 1089.5 45.7457 1089.3 45.839C1089.11 45.9277 1088.91 45.9953 1088.69 46.042C1088.47 46.0887 1088.23 46.112 1087.96 46.112C1087.68 46.112 1087.42 46.0747 1087.17 46C1086.93 45.9207 1086.71 45.8017 1086.53 45.643C1086.35 45.4843 1086.2 45.286 1086.1 45.048C1085.99 44.81 1085.94 44.5323 1085.94 44.215C1085.94 43.935 1086.02 43.6667 1086.17 43.41C1086.32 43.1487 1086.57 42.9153 1086.91 42.71C1087.25 42.5047 1087.7 42.3367 1088.25 42.206C1088.81 42.0753 1089.49 42.0007 1090.3 41.982V41.464C1090.3 40.9273 1090.18 40.526 1089.95 40.26C1089.73 39.994 1089.39 39.861 1088.95 39.861C1088.65 39.861 1088.4 39.8983 1088.19 39.973C1087.99 40.0477 1087.81 40.1317 1087.67 40.225C1087.52 40.3137 1087.39 40.3953 1087.28 40.47C1087.17 40.5447 1087.06 40.582 1086.94 40.582C1086.85 40.582 1086.77 40.5563 1086.7 40.505C1086.63 40.4537 1086.58 40.393 1086.54 40.323L1086.29 39.882ZM1098.05 40.61C1097.82 40.316 1097.58 40.1107 1097.32 39.994C1097.06 39.8773 1096.77 39.819 1096.45 39.819C1095.83 39.819 1095.34 40.0453 1094.99 40.498C1094.65 40.946 1094.48 41.6017 1094.48 42.465C1094.48 42.9177 1094.52 43.305 1094.6 43.627C1094.68 43.9443 1094.79 44.2057 1094.93 44.411C1095.08 44.6117 1095.26 44.761 1095.48 44.859C1095.69 44.9523 1095.94 44.999 1096.21 44.999C1096.6 44.999 1096.95 44.9103 1097.23 44.733C1097.52 44.5557 1097.79 44.306 1098.05 43.984V40.61ZM1099.42 35.668V46H1098.59C1098.4 46 1098.28 45.909 1098.24 45.727L1098.12 44.908C1097.81 45.2673 1097.47 45.5567 1097.08 45.776C1096.7 45.9907 1096.25 46.098 1095.75 46.098C1095.34 46.098 1094.98 46.0187 1094.64 45.86C1094.32 45.7013 1094.04 45.4703 1093.8 45.167C1093.57 44.859 1093.39 44.4787 1093.27 44.026C1093.14 43.5733 1093.08 43.053 1093.08 42.465C1093.08 41.9377 1093.15 41.4477 1093.29 40.995C1093.43 40.5423 1093.63 40.1503 1093.9 39.819C1094.16 39.4877 1094.48 39.2287 1094.86 39.042C1095.24 38.8507 1095.67 38.755 1096.14 38.755C1096.57 38.755 1096.94 38.825 1097.23 38.965C1097.54 39.105 1097.81 39.3033 1098.05 39.56V35.668H1099.42ZM1104.35 38.776C1104.88 38.776 1105.35 38.8623 1105.77 39.035C1106.19 39.203 1106.55 39.448 1106.85 39.77C1107.14 40.0873 1107.37 40.4723 1107.53 40.925C1107.69 41.373 1107.77 41.877 1107.77 42.437C1107.77 42.997 1107.69 43.5033 1107.53 43.956C1107.37 44.4087 1107.14 44.7937 1106.85 45.111C1106.55 45.4283 1106.19 45.6733 1105.77 45.846C1105.35 46.014 1104.88 46.098 1104.35 46.098C1103.83 46.098 1103.35 46.014 1102.93 45.846C1102.51 45.6733 1102.15 45.4283 1101.85 45.111C1101.55 44.7937 1101.32 44.4087 1101.16 43.956C1101 43.5033 1100.92 42.997 1100.92 42.437C1100.92 41.877 1101 41.373 1101.16 40.925C1101.32 40.4723 1101.55 40.0873 1101.85 39.77C1102.15 39.448 1102.51 39.203 1102.93 39.035C1103.35 38.8623 1103.83 38.776 1104.35 38.776ZM1104.35 45.034C1105.03 45.034 1105.53 44.8077 1105.86 44.355C1106.19 43.9023 1106.36 43.2653 1106.36 42.444C1106.36 41.6227 1106.19 40.9857 1105.86 40.533C1105.53 40.0757 1105.03 39.847 1104.35 39.847C1103.67 39.847 1103.16 40.0757 1102.83 40.533C1102.5 40.9857 1102.33 41.6227 1102.33 42.444C1102.33 43.2653 1102.5 43.9023 1102.83 44.355C1103.16 44.8077 1103.67 45.034 1104.35 45.034ZM1113.49 40.113C1113.45 40.1737 1113.41 40.218 1113.37 40.246C1113.33 40.2693 1113.27 40.281 1113.21 40.281C1113.13 40.281 1113.05 40.2553 1112.95 40.204C1112.87 40.1527 1112.76 40.0967 1112.63 40.036C1112.5 39.9753 1112.35 39.9193 1112.18 39.868C1112.01 39.8167 1111.8 39.791 1111.56 39.791C1111.37 39.791 1111.19 39.8167 1111.02 39.868C1110.86 39.9147 1110.73 39.9823 1110.62 40.071C1110.5 40.155 1110.42 40.2577 1110.36 40.379C1110.3 40.4957 1110.27 40.6217 1110.27 40.757C1110.27 40.9343 1110.32 41.0813 1110.42 41.198C1110.53 41.3147 1110.67 41.415 1110.83 41.499C1111.01 41.583 1111.2 41.66 1111.41 41.73C1111.63 41.7953 1111.86 41.8653 1112.08 41.94C1112.31 42.0147 1112.53 42.101 1112.74 42.199C1112.96 42.2923 1113.16 42.4113 1113.33 42.556C1113.5 42.696 1113.64 42.8663 1113.74 43.067C1113.85 43.2677 1113.9 43.5127 1113.9 43.802C1113.9 44.1333 1113.84 44.4413 1113.72 44.726C1113.6 45.006 1113.43 45.2487 1113.19 45.454C1112.96 45.6593 1112.68 45.8203 1112.34 45.937C1112 46.0537 1111.61 46.112 1111.17 46.112C1110.68 46.112 1110.23 46.0303 1109.81 45.867C1109.4 45.7037 1109.05 45.496 1108.77 45.244L1109.09 44.719C1109.13 44.6537 1109.17 44.6047 1109.23 44.572C1109.29 44.5347 1109.36 44.516 1109.45 44.516C1109.54 44.516 1109.63 44.5487 1109.73 44.614C1109.82 44.6793 1109.93 44.7517 1110.06 44.831C1110.19 44.9057 1110.35 44.9757 1110.54 45.041C1110.73 45.1017 1110.96 45.132 1111.24 45.132C1111.47 45.132 1111.68 45.104 1111.85 45.048C1112.02 44.9873 1112.16 44.908 1112.28 44.81C1112.39 44.7073 1112.48 44.5907 1112.53 44.46C1112.59 44.3293 1112.62 44.1917 1112.62 44.047C1112.62 43.8603 1112.57 43.7063 1112.46 43.585C1112.36 43.459 1112.22 43.3517 1112.04 43.263C1111.88 43.1743 1111.68 43.0973 1111.46 43.032C1111.24 42.9667 1111.02 42.8967 1110.79 42.822C1110.56 42.7473 1110.34 42.661 1110.12 42.563C1109.9 42.465 1109.7 42.3413 1109.53 42.192C1109.36 42.0427 1109.23 41.8607 1109.12 41.646C1109.02 41.4313 1108.96 41.17 1108.96 40.862C1108.96 40.5867 1109.02 40.323 1109.13 40.071C1109.25 39.819 1109.42 39.5973 1109.63 39.406C1109.85 39.2147 1110.12 39.063 1110.43 38.951C1110.76 38.8343 1111.12 38.776 1111.53 38.776C1112.01 38.776 1112.43 38.8507 1112.81 39C1113.19 39.1493 1113.52 39.3547 1113.79 39.616L1113.49 40.113Z" fill="#343434"/>
<line x1="1179.5" y1="19" x2="1179.5" y2="63" stroke="black"/>
<path fill-rule="evenodd" clip-rule="evenodd" d="M1243 30.7373V36.6075H1260.17C1262.17 36.6075 1264.72 34.762 1264.72 31.709C1264.72 30.4811 1265.19 29.6801 1263.74 28.056L1261.55 25.4536C1260.29 24.2795 1261.7 24.2795 1262.75 24.2795H1270V36.6075H1275.75V24.2795H1283.5V19H1258.41C1255.36 19 1253.86 21.9314 1253.95 23.4577C1254.03 24.9839 1254.31 26.9042 1256.85 29.211C1259.16 31.3145 1255.7 30.7373 1255.36 30.7373H1243ZM1296.22 19H1286.94L1281.74 36.608H1287.53L1288.47 34.1425H1294.57L1295.48 36.608H1301.15L1296.22 19ZM1289.76 29.9154L1291.76 23.4577L1293.63 29.9154H1289.76ZM1319.46 30.7373C1317.23 30.7373 1317.23 29.9154 1317.23 29.9154C1319.14 29.9154 1320.84 27.1306 1320.84 24.2795C1320.84 21.4284 1318.05 19 1315.82 19H1303.34V36.608H1309.69V30.7377C1309.69 30.7377 1312.38 33.9077 1313.79 35.1991C1315.2 36.4906 1315.32 36.608 1317.23 36.608H1327.19V30.7377C1327.19 30.7373 1321.69 30.7373 1319.46 30.7373ZM1313.71 26.6281H1309.69V23.4577H1313.71C1315.56 23.4577 1315.87 26.6281 1313.71 26.6281ZM1243 38.8382H1249.49L1251.13 44.7094L1252.66 38.8382H1259.47L1261.23 44.7094L1262.99 38.8382H1268.62L1263.46 56.4504H1258.29L1256.03 48.1137L1253.48 56.4504H1248.2L1243 38.8382ZM1281.94 38.9398H1272.66L1267.46 56.5473H1273.25L1274.19 54.0823H1280.29L1281.2 56.5473H1286.87L1281.94 38.9398ZM1275.48 49.8548L1277.48 43.397L1279.36 49.8548H1275.48ZM1319.58 44.1224C1318.52 44.1224 1317.37 44.2458 1318.63 45.4194L1320.83 48.0222C1322.27 49.6464 1322.25 50.3235 1322.25 51.5523C1322.25 54.6048 1319.23 56.4504 1317.23 56.4504L1303.36 56.5436C1301.45 56.5436 1301.33 56.4267 1299.92 55.1352C1298.51 53.8438 1295.81 50.6734 1295.81 50.6734V56.5436H1289.47V38.9361H1301.95C1304.18 38.9361 1306.97 41.365 1306.97 44.2156C1306.97 47.0672 1305.27 49.8515 1303.36 49.8515C1303.36 49.8515 1304.2 50.697 1305.61 50.697C1307.02 50.697 1312.44 50.7026 1312.44 50.7026C1312.79 50.7026 1316.25 51.2799 1313.94 49.1763C1311.4 46.8695 1311.12 44.9502 1311.04 43.424C1310.95 41.8977 1312.27 38.8387 1315.32 38.8387H1327.19V44.1228L1319.58 44.1224ZM1299.84 46.5637H1295.81V43.3933H1299.84C1301.68 43.3933 1302 46.5637 1299.84 46.5637Z" fill="black"/>
</svg>
